<svg height="480pt" viewBox="-72 0 480 480.0001" width="480pt" xmlns="http://www.w3.org/2000/svg"><path d="m272 472h-208l-32-336h272zm0 0" fill="#dedede"/><path d="m8 72h320v64h-320zm0 0" fill="#8c563b"/><path d="m296 72h-256l16-64h224zm0 0" fill="#825037"/><path d="m40 400h256l24-192h-304zm0 0" fill="#f09e3e"/><path d="m40 400h256l24-192h-304zm0 0" fill="#f09e3e"/><path d="m320 208h-34.464844c-31.347656 84.699219-94.765625 153.667969-176.542968 192h187.007812zm0 0" fill="#f09032"/><g fill="#d68033"><path d="m56 232.003906c4.390625-.488281 8.347656 2.675782 8.835938 7.070313l14.230468 128.097656c.488282 4.390625-2.675781 8.347656-7.066406 8.835937-4.390625.488282-8.347656-2.675781-8.835938-7.070312l-14.230468-128.097656c-.488282-4.390625 2.675781-8.347656 7.066406-8.835938zm0 0"/><path d="m168 232c4.417969 0 8 3.582031 8 8v128c0 4.417969-3.582031 8-8 8s-8-3.582031-8-8v-128c0-4.417969 3.582031-8 8-8zm0 0"/><path d="m136 232c4.417969 0 8 3.582031 8 8v128c0 4.417969-3.582031 8-8 8s-8-3.582031-8-8v-128c0-4.417969 3.582031-8 8-8zm0 0"/><path d="m95.992188 231.996094c4.410156-.242188 8.183593 3.132812 8.429687 7.546875l7.113281 128.023437c.242188 4.414063-3.132812 8.1875-7.539062 8.433594-4.410156.246094-8.183594-3.132812-8.429688-7.542969l-7.113281-128.027343c-.246094-4.414063 3.132813-8.1875 7.539063-8.433594zm0 0"/><path d="m256.929688 367.164062 14.234374-128.097656c.488282-4.390625 4.441407-7.554687 8.832032-7.070312 4.394531.488281 7.558594 4.445312 7.070312 8.835937l-14.234375 128.101563c-.488281 4.390625-4.441406 7.554687-8.835937 7.066406-4.390625-.488281-7.554688-4.445312-7.066406-8.835938zm0 0"/><path d="m200 232c4.417969 0 8 3.582031 8 8v128c0 4.417969-3.582031 8-8 8s-8-3.582031-8-8v-128c0-4.417969 3.582031-8 8-8zm0 0"/><path d="m224.441406 367.566406 7.140625-128.023437c.246094-4.410157 4.019531-7.789063 8.429688-7.542969 4.410156.246094 7.785156 4.023438 7.539062 8.433594l-7.140625 128.023437c-.246094 4.414063-4.019531 7.789063-8.429687 7.542969-4.410157-.246094-7.785157-4.019531-7.539063-8.433594zm0 0"/></g><path d="m301.710938 160 2.289062-24h-272l2.289062 24zm0 0" fill="#ccc"/><path d="m276.566406 424 2.289063-24h-221.710938l2.289063 24zm0 0" fill="#ccc"/><path d="m328 144c4.417969 0 8-3.582031 8-8v-64c0-4.417969-3.582031-8-8-8h-25.761719l-14.476562-57.945312c-.894531-3.558594-4.09375-6.054688-7.761719-6.054688h-224c-3.667969 0-6.867188 2.496094-7.761719 6.054688l-14.476562 57.945312h-25.761719c-4.417969 0-8 3.582031-8 8v64c0 4.417969 3.582031 8 8 8h16.726562l5.335938 56h-14.0625c-2.292969 0-4.476562.984375-5.996094 2.707031-1.519531 1.71875-2.222656 4.007813-1.941406 6.285157l24 192c.5 4.003906 3.902344 7.007812 7.9375 7.007812h9.871094l6.167968 64.761719c.394532 4.101562 3.839844 7.234375 7.960938 7.238281h208c4.125.019531 7.585938-3.097656 8-7.199219l6.128906-64.800781h9.871094c4.035156 0 7.4375-3.003906 7.9375-7.007812l24-192c.28125-2.277344-.421875-4.566407-1.941406-6.285157-1.519532-1.722656-3.703125-2.707031-5.996094-2.707031h-14.0625l5.335938-56zm-265.75-128h211.503906l12 48h-235.503906zm-46.25 64h304v48h-304zm248.726562 384h-193.453124l-5.335938-56h204.125zm24.210938-72h-241.875l-22-176h285.875zm.933594-192h-243.742188l-5.328125-56h254.398438zm0 0"/><path d="m48.050781 232.886719 15.898438-1.765625 16 144.003906-15.902344 1.765625zm0 0"/><path d="m160 232h16v144h-16zm0 0"/><path d="m128 232h16v144h-16zm0 0"/><path d="m88.011719 232.441406 15.964843-.886718 8 144-15.964843.886718zm0 0"/><path d="m256.058594 375.113281 15.988281-144.003906 15.902344 1.765625-15.988281 144.003906zm0 0"/><path d="m192 232h16v144h-16zm0 0"/><path d="m223.9375 375.769531 8.078125-143.9375 15.957031.894531-8.074218 143.9375zm0 0"/></svg>