<svg height="512pt" viewBox="0 0 512 512" width="512pt" xmlns="http://www.w3.org/2000/svg"><path d="m464.898438 332-9.597657 108.601562c-1.800781 23.398438-21.300781 41.398438-44.699219 41.398438h-157.203124c-23.398438 0-42.898438-18-44.699219-41.398438l-9.597657-108.601562 48.597657-30h168.601562zm0 0" fill="#ff7816"/><path d="m416.300781 302 48.597657 30-9.597657 108.601562c-1.800781 23.398438-21.300781 41.398438-44.699219 41.398438h-78.601562v-180zm0 0" fill="#ff4b00"/><path d="m376.984375 91c-2.253906 0-4.539063-.511719-6.695313-1.582031-7.410156-3.707031-10.414062-12.714844-6.707031-20.128907l30-61c2.550781-5.082031 7.734375-8.289062 13.417969-8.289062h90c8.289062 0 15 6.710938 15 15s-6.710938 15-15 15h-80.726562l-25.855469 52.710938c-2.636719 5.257812-7.925781 8.289062-13.433594 8.289062zm0 0" fill="#d2c5c2"/><path d="m480.5 129.402344h-297l30-60c2.699219-5.101563 7.800781-8.402344 13.5-8.402344h210c5.699219 0 10.800781 3.300781 13.5 8.402344zm0 0" fill="#663325"/><path d="m480.5 129.402344h-148.5v-68.402344h105c5.699219 0 10.800781 3.300781 13.5 8.402344zm0 0" fill="#552001"/><path d="m482 136-9.300781 106-56.398438 30h-168.601562l-56.398438-30-9.300781-106zm0 0" fill="#ff7816"/><path d="m482 136-9.300781 106-56.398438 30h-84.300781v-136zm0 0" fill="#ff4b00"/><path d="m472.699219 242-7.800781 90h-48.597657c-19.5 18.898438-50.402343 30-84.300781 30s-64.800781-11.101562-84.300781-30h-48.597657l-7.800781-90h56.398438c19.5-18.898438 50.402343-30 84.300781-30s64.800781 11.101562 84.300781 30zm0 0" fill="#ffcebf"/><path d="m416.300781 242h56.398438l-7.800781 90h-48.597657c-19.5 18.898438-50.402343 30-84.300781 30v-150c33.898438 0 64.800781 11.101562 84.300781 30zm0 0" fill="#ffa78f"/><path d="m512 136c0 8.402344-6.597656 15-15 15h-330c-8.402344 0-15-6.597656-15-15s6.597656-15 15-15h330c8.402344 0 15 6.597656 15 15zm0 0" fill="#804231"/><path d="m331 347c0 90.902344-74.097656 165-165 165s-166-74.097656-166-165h90c0 41.398438 34.601562 75 76 75s75-33.601562 75-75zm0 0" fill="#fdbf00"/><path d="m331 347c0 90.902344-74.097656 165-165 165v-90c41.398438 0 75-33.601562 75-75zm0 0" fill="#ff9f00"/><path d="m166 182c-90.902344 0-166 74.097656-166 165 0 24.902344 20.097656 45 45 45s45-20.097656 45-45c0-41.398438 34.601562-75 76-75s75 33.601562 75 75c0 24.902344 20.097656 45 45 45s45-20.097656 45-45c0-90.902344-74.097656-165-165-165zm0 0" fill="#804231"/><g fill="#663325"><path d="m331 347c0 24.902344-20.097656 45-45 45s-45-20.097656-45-45c0-41.398438-33.601562-75-75-75v-90c90.902344 0 165 74.097656 165 165zm0 0"/><path d="m512 136c0 8.402344-6.597656 15-15 15h-165v-30h165c8.402344 0 15 6.597656 15 15zm0 0"/></g></svg>